<?xml version="1.0" encoding="UTF-8" standalone="no"?>
<svg
   xmlns:dc="http://purl.org/dc/elements/1.1/"
   xmlns:cc="http://creativecommons.org/ns#"
   xmlns:rdf="http://www.w3.org/1999/02/22-rdf-syntax-ns#"
   xmlns:svg="http://www.w3.org/2000/svg"
   xmlns="http://www.w3.org/2000/svg"
   xmlns:xlink="http://www.w3.org/1999/xlink"
   xmlns:sodipodi="http://sodipodi.sourceforge.net/DTD/sodipodi-0.dtd"
   xmlns:inkscape="http://www.inkscape.org/namespaces/inkscape"
   inkscape:export-ydpi="96"
   inkscape:export-xdpi="96"
   inkscape:export-filename="/home/alexis/Workspace/AppImage/branding/appimage-builder.png"
   inkscape:version="1.0 (4035a4f, 2020-05-01)"
   sodipodi:docname="appimage-builder.svg"
   id="svg8"
   version="1.1"
   viewBox="0 0 67.733332 67.733335"
   height="256"
   width="256">
  <defs
     id="defs2">
    <radialGradient
       r="38.212933"
       fy="-48.027504"
       fx="48.42384"
       cy="-48.027504"
       cx="48.42384"
       gradientTransform="matrix(0,0.9307274,-1.4448052,8.532012e-4,-32.047573,2.3069501)"
       gradientUnits="userSpaceOnUse"
       id="radialGradient2985"
       xlink:href="#linearGradient3575"
       inkscape:collect="always" />
    <linearGradient
       id="linearGradient3575">
      <stop
         offset="0"
         style="stop-color:#fafafa;stop-opacity:1"
         id="stop3577" />
      <stop
         offset="1"
         style="stop-color:#e6e6e6;stop-opacity:1"
         id="stop3579" />
    </linearGradient>
    <linearGradient
       y2="26.437023"
       x2="41.861729"
       y1="26.437023"
       x1="7.6485429"
       gradientTransform="matrix(0,0.33602724,-0.31559312,0,46.125215,49.015078)"
       gradientUnits="userSpaceOnUse"
       id="linearGradient2979"
       xlink:href="#linearGradient4222"
       inkscape:collect="always" />
    <linearGradient
       id="linearGradient4222">
      <stop
         offset="0"
         style="stop-color:#ffffff;stop-opacity:1"
         id="stop4224" />
      <stop
         offset="1"
         style="stop-color:#ffffff;stop-opacity:0"
         id="stop4226" />
    </linearGradient>
    <linearGradient
       y2="41.03125"
       x2="24.3125"
       y1="22.96875"
       x1="24.3125"
       gradientUnits="userSpaceOnUse"
       id="linearGradient2975"
       xlink:href="#linearGradient4222"
       inkscape:collect="always"
       gradientTransform="matrix(0.87240772,0,0,0.9069642,16.892303,43.421746)" />
  </defs>
  <sodipodi:namedview
     inkscape:document-rotation="0"
     inkscape:pagecheckerboard="true"
     inkscape:window-maximized="1"
     inkscape:window-y="0"
     inkscape:window-x="0"
     inkscape:window-height="825"
     inkscape:window-width="1600"
     inkscape:guide-bbox="true"
     showguides="true"
     borderlayer="true"
     inkscape:showpageshadow="false"
     units="px"
     showgrid="true"
     inkscape:current-layer="layer1"
     inkscape:document-units="px"
     inkscape:cy="128"
     inkscape:cx="128"
     inkscape:zoom="1"
     inkscape:pageshadow="2"
     inkscape:pageopacity="0.0"
     borderopacity="1.0"
     bordercolor="#666666"
     pagecolor="#ffffff"
     id="base">
    <inkscape:grid
       empspacing="2"
       id="grid4485"
       type="xygrid" />
    <sodipodi:guide
       inkscape:color="rgb(0,0,255)"
       inkscape:label="2560"
       inkscape:locked="false"
       id="guide4487"
       orientation="1,0"
       position="677.33334,285.75" />
    <sodipodi:guide
       inkscape:color="rgb(0,0,255)"
       inkscape:label="1000"
       inkscape:locked="false"
       id="guide4489"
       orientation="1,0"
       position="0,0" />
    <sodipodi:guide
       inkscape:color="rgb(255,0,133)"
       inkscape:label="1000"
       inkscape:locked="false"
       id="guide4495"
       orientation="1,0"
       position="67.733334,67.733334" />
    <sodipodi:guide
       id="guide834"
       orientation="0,-1"
       position="83.079167,67.733334" />
    <sodipodi:guide
       id="guide836"
       orientation="0,-1"
       position="67.733334,0" />
    <sodipodi:guide
       id="guide840"
       orientation="1,0"
       position="33.866667,33.866667" />
    <sodipodi:guide
       id="guide842"
       orientation="0,-1"
       position="33.866667,33.866667" />
    <sodipodi:guide
       id="guide870"
       orientation="1,0"
       position="56.091666,17.991667" />
    <sodipodi:guide
       id="guide881"
       orientation="1,0"
       position="11.641667,62.441667" />
    <sodipodi:guide
       id="guide927"
       orientation="0,-1"
       position="56.091665,17.991667" />
    <sodipodi:guide
       id="guide936"
       orientation="0,-1"
       position="56.091665,56.091668" />
  </sodipodi:namedview>
  <metadata
     id="metadata5">
    <rdf:RDF>
      <cc:Work
         rdf:about="">
        <dc:format>image/svg+xml</dc:format>
        <dc:type
           rdf:resource="http://purl.org/dc/dcmitype/StillImage" />
        <dc:title />
      </cc:Work>
    </rdf:RDF>
  </metadata>
  <g
     transform="translate(0,-32.41665)"
     id="layer1"
     inkscape:groupmode="layer"
     inkscape:label="Capa 1">
    <path
       d="m 11.585856,39.295814 a 6.3499999,6.3499999 0 0 0 -6.2941894,6.35 6.3499999,6.3499999 0 0 0 0,0.05581 v 38.044189 a 6.3499999,6.3499999 0 0 0 6.3500004,6.35 h 44.449999 a 6.3499999,6.3499999 0 0 0 6.35,-6.35 6.3499999,6.3499999 0 0 0 -6.294189,-6.35 h 6.294189 V 45.701625 a 6.3499999,6.3499999 0 0 0 0,-0.05581 6.3499999,6.3499999 0 0 0 -6.35,-6.35 6.3499999,6.3499999 0 0 0 -6.35,6.35 H 11.641667 v -6.35 a 6.3499999,6.3499999 0 0 0 -0.05581,0 z"
       style="opacity:0.2;fill:#000000;fill-opacity:1;stroke-width:0.529167;stroke-linecap:round"
       id="path2403" />
    <path
       transform="matrix(0.26458333,0,0,0.26458333,0,32.41665)"
       d="M 44 44 L 44 212 L 212 212 L 212 164 L 236 164 L 236 44 L 44 44 z "
       style="opacity:1;fill:#1976d2;stroke-width:2;stroke-linecap:round;fill-opacity:1"
       id="rect862" />
    <rect
       y="44.058315"
       x="48.154167"
       height="44.450001"
       width="7.937499"
       id="rect956"
       style="opacity:1;fill:#1566c1;fill-opacity:1;stroke-width:0.529167;stroke-linecap:round" />
    <path
       transform="matrix(0.26458333,0,0,0.26458333,0,32.41665)"
       d="M 212 188 L 236 188 L 236 44 L 212 44 L 212 188 z "
       style="opacity:1;fill:#1976d2;fill-opacity:1;stroke-width:2;stroke-linecap:round"
       id="rect866" />
    <path
       transform="matrix(0.26458333,0,0,0.26458333,0,32.41665)"
       d="M 212 68 A 24 24 0 0 0 236 44 A 24 24 0 0 0 212 20 L 212 68 z "
       style="opacity:1;fill:#1976d2;fill-opacity:1;stroke-width:2;stroke-linecap:round"
       id="circle868" />
    <path
       transform="matrix(0.26458333,0,0,0.26458333,0,32.41665)"
       d="M 214 22.091797 L 214 44 L 234 44 A 22.000001 22.000001 0 0 0 214 22.091797 z "
       style="opacity:1;fill:#1e88e5;fill-opacity:1;stroke-width:1.87276;stroke-linecap:round"
       id="circle934" />
    <path
       transform="matrix(0.26458333,0,0,0.26458333,0,32.41665)"
       d="M 212 188 L 212 44 L 188 44 L 188 188 L 212 188 z "
       style="opacity:1;fill:#2196f3;fill-opacity:1;stroke-width:2;stroke-linecap:round"
       id="path912" />
    <path
       transform="matrix(0.26458333,0,0,0.26458333,0,32.41665)"
       d="M 212 68 L 212 20 A 24 24 0 0 0 188 44 A 24 24 0 0 0 212 68 z "
       style="opacity:1;fill:#2196f3;fill-opacity:1;stroke-width:2;stroke-linecap:round"
       id="path917" />
    <path
       transform="matrix(0.26458333,0,0,0.26458333,0,32.41665)"
       d="M 212 212 A 24 24 0 0 0 236 188 A 24 24 0 0 0 212 164 L 212 212 z "
       style="opacity:1;fill:#135fb4;fill-opacity:1;stroke-width:2;stroke-linecap:round"
       id="path864" />
    <path
       transform="matrix(0.26458333,0,0,0.26458333,0,32.41665)"
       d="M 188 188 A 24 24 0 0 0 212 212 L 212 188 L 188 188 z "
       style="opacity:1;fill:#135fb4;fill-opacity:1;stroke-width:2;stroke-linecap:round"
       id="path922" />
    <path
       transform="matrix(0.26458333,0,0,0.26458333,0,32.41665)"
       d="M 188 188 L 212 188 L 212 164 A 24 24 0 0 0 188 188 z "
       style="opacity:1;fill:#135fb4;fill-opacity:1;stroke-width:2;stroke-linecap:round"
       id="path929" />
    <circle
       r="5.8208337"
       cy="82.158318"
       cx="56.091667"
       id="path932"
       style="opacity:1;fill:#0d47a1;fill-opacity:1;stroke-width:0.495502;stroke-linecap:round" />
    <path
       transform="matrix(0.26458333,0,0,0.26458333,0,32.41665)"
       d="M 214 44 L 214 162.07812 A 25.999998 25.999998 0 0 1 234 174.14648 L 234 44 L 214 44 z "
       style="opacity:1;fill:#1e88e5;fill-opacity:1;stroke-width:2;stroke-linecap:round"
       id="rect944" />
    <path
       d="m 55.562498,38.261771 v 5.796546 h -5.291666 a 5.8208335,5.8208335 0 0 1 5.291666,-5.796546 z"
       style="opacity:1;fill:#42a5f5;fill-opacity:1;stroke-width:0.495501;stroke-linecap:round"
       id="path952" />
    <path
       d="m 55.562498,44.058317 v 31.241502 a 6.8791661,6.8791661 0 0 0 -5.291666,3.193087 V 44.058317 Z"
       style="opacity:1;fill:#42a5f5;fill-opacity:1;stroke-width:0.529167;stroke-linecap:round"
       id="path954" />
    <rect
       transform="scale(-1,1)"
       y="44.058315"
       x="-13.229167"
       height="44.450001"
       width="1.5875022"
       id="rect969"
       style="opacity:1;fill:#1565c0;fill-opacity:1;stroke-width:0.529167;stroke-linecap:round" />
    <path
       d="M 11.641664,82.158316 H 5.2916651 V 44.058317 h 6.3499989 z"
       style="opacity:1;fill:#1976d2;fill-opacity:1;stroke-width:0.529167;stroke-linecap:round"
       id="path971" />
    <path
       d="m 11.641664,50.408316 a 6.3499999,6.3499999 0 0 1 -6.3499989,-6.349999 6.3499999,6.3499999 0 0 1 6.3499989,-6.35 z"
       style="opacity:1;fill:#1976d2;fill-opacity:1;stroke-width:0.529167;stroke-linecap:round"
       id="path973" />
    <path
       d="m 11.112497,38.261771 v 5.796546 H 5.8208311 a 5.8208335,5.8208335 0 0 1 5.2916659,-5.796546 z"
       style="opacity:1;fill:#1e88e5;fill-opacity:1;stroke-width:0.495501;stroke-linecap:round"
       id="path975" />
    <path
       d="m 11.641664,88.508316 a 6.3499999,6.3499999 0 0 1 -6.3499989,-6.35 6.3499999,6.3499999 0 0 1 6.3499989,-6.35 z"
       style="opacity:1;fill:#1565c0;fill-opacity:1;stroke-width:0.529167;stroke-linecap:round"
       id="path981" />
    <path
       transform="matrix(0.26458333,0,0,0.26458333,0,32.41665)"
       d="M 44 166 A 22.000001 22.000001 0 0 0 22 188 A 22.000001 22.000001 0 0 0 44 210 L 44 166 z "
       style="opacity:1;fill:#1565c0;fill-opacity:1;stroke-width:1.87276;stroke-linecap:round"
       id="circle987" />
    <path
       d="M 11.112497,44.058317 V 75.299819 A 6.8791661,6.8791661 0 0 0 5.8208311,78.492906 V 44.058317 Z"
       style="opacity:1;fill:#1e88e5;fill-opacity:1;stroke-width:0.529167;stroke-linecap:round"
       id="path989" />
    <path
       d="m 35.212865,49.742154 a 1.7592195,1.828903 0 0 0 -1.772078,1.842268 v 3.599516 h -1.008722 a 1.7592195,1.828903 0 0 0 -1.308612,3.061004 l 4.416564,5.215044 c -0.05508,0.10048 -0.15592,0.22316 -0.19084,0.31176 -0.17092,0.433764 -0.21808,0.758704 -0.21808,1.105364 v 0.11336 l -0.0818,-0.08504 c -0.24268,-0.25228 -0.522864,-0.47594 -0.954198,-0.65188 -0.21568,-0.08796 -0.465248,-0.16052 -0.845144,-0.14172 -0.37988,0.0188 -0.919566,0.19072 -1.28135,0.566852 l -1.335876,1.388788 c -0.36176,0.37612 -0.527144,0.93716 -0.545252,1.332104 -0.018,0.39496 0.05172,0.654408 0.13632,0.87862 0.16924,0.448428 0.38436,0.739692 0.627044,0.991992 l 0.0818,0.085 h -0.10904 c -0.33344,0 -0.646012,0.04908 -1.063246,0.22676 -0.2086,0.08884 -0.469602,0.195 -0.736094,0.481824 -0.26648,0.28684 -0.545256,0.82968 -0.545256,1.388788 v 1.983984 c 0,0.559112 0.278762,1.101952 0.545256,1.388792 0.26648,0.28684 0.527476,0.393 0.736094,0.481824 0.417236,0.17768 0.729794,0.22676 1.063246,0.22676 h 0.10904 l -0.0818,0.08504 c -0.24268,0.25228 -0.457804,0.543572 -0.627044,0.991992 -0.0846,0.2242 -0.1544,0.48368 -0.13632,0.878624 0.018,0.39496 0.18348,0.955992 0.545252,1.332104 l 1.335876,1.388788 c 0.36176,0.37612 0.901452,0.548028 1.28135,0.566852 0.379918,0.0188 0.629476,-0.05376 0.845144,-0.14172 0.431344,-0.17596 0.711512,-0.3996 0.954198,-0.65188 l 0.0818,-0.08504 v 0.11336 c 0,0.34664 0.0472,0.671604 0.21808,1.105364 0.08544,0.21688 0.18756,0.488204 0.463468,0.765248 0.27592,0.27704 0.798064,0.566856 1.335872,0.566856 h 1.908392 c 0.537812,0 1.059968,-0.2898 1.335876,-0.566856 0.27592,-0.27704 0.378,-0.548368 0.463464,-0.765248 0.17092,-0.43376 0.21812,-0.758704 0.21812,-1.105364 v -0.11336 l 0.0818,0.08504 c 0.24268,0.25228 0.52286,0.475936 0.954196,0.65188 0.21568,0.08796 0.465248,0.16052 0.845144,0.14172 0.37988,-0.0188 0.919572,-0.19072 1.281352,-0.566852 l 1.335872,-1.388788 c 0.3618,-0.37612 0.527148,-0.93716 0.545256,-1.332104 0.018,-0.39496 -0.05172,-0.654408 -0.13632,-0.878624 -0.16924,-0.448424 -0.38436,-0.739692 -0.62704,-0.991992 l -0.0818,-0.08504 h 0.10904 c 0.33344,0 0.646016,-0.04908 1.063248,-0.22676 0.2086,-0.08884 0.469604,-0.195 0.736096,-0.481824 0.26648,-0.28684 0.545252,-0.82968 0.545252,-1.388792 v -1.983944 c 0,-0.559108 -0.27876,-1.101952 -0.545252,-1.388788 -0.26648,-0.28684 -0.527476,-0.393 -0.736096,-0.481824 -0.417236,-0.17768 -0.729796,-0.22676 -1.063248,-0.22676 h -0.10904 l 0.0818,-0.085 c 0.24268,-0.25228 0.457804,-0.543568 0.62704,-0.991992 0.0846,-0.2242 0.1544,-0.483676 0.13632,-0.87862 -0.018,-0.39496 -0.18348,-0.955992 -0.545256,-1.332104 l -1.335876,-1.388784 c -0.36176,-0.37612 -0.901452,-0.548032 -1.281348,-0.566856 -0.37992,-0.0188 -0.629476,0.05376 -0.845144,0.14172 -0.431344,0.17596 -0.711512,0.39956 -0.954196,0.65188 l -0.0818,0.08504 v -0.11336 c 0,-0.34664 -0.0472,-0.6716 -0.21812,-1.10536 -0.07948,-0.20176 -0.19904,-0.453648 -0.436204,-0.708568 l 4.116672,-4.818248 a 1.7592195,1.828903 0 0 0 -1.308608,-3.061008 h -1.00872 V 51.58445 a 1.7592195,1.828903 0 0 0 -1.77208,-1.842268 z m 2.889848,22.022224 c 0.3726,0 0.654308,0.29288 0.654308,0.680224 0,0.38736 -0.28172,0.680224 -0.654308,0.680224 -0.3726,0 -0.654304,-0.29288 -0.654304,-0.680224 0,-0.38736 0.281722,-0.680224 0.654304,-0.680224 z"
       id="path4294-1"
       style="display:inline;overflow:visible;visibility:visible;opacity:0.05;fill:#000000;fill-opacity:1;fill-rule:nonzero;stroke:none;stroke-width:0.891112;marker:none;enable-background:accumulate" />
    <path
       d="m 35.131079,50.705802 a 0.84087076,0.87417804 0 0 0 -0.763362,0.87862 v 4.563168 h -1.935652 a 0.84087076,0.87417804 0 0 0 -0.627044,1.445472 l 5.043608,5.923608 c -0.13856,0.05588 -0.29824,0.08624 -0.38168,0.17004 -0.14756,0.1482 -0.220678,0.29332 -0.272638,0.42514 -0.10388,0.26364 -0.13632,0.51402 -0.13632,0.765252 v 1.50216 c -0.2186,0.08148 -0.421268,0.17892 -0.627044,0.28344 l -1.035984,-1.07702 c -0.17416,-0.18108 -0.36768,-0.31936 -0.627044,-0.425144 -0.12968,-0.05292 -0.2876,-0.09508 -0.490728,-0.085 -0.20312,0.01 -0.467464,0.0892 -0.654304,0.28344 l -1.335876,1.388788 c -0.18684,0.19424 -0.26296,0.469056 -0.27264,0.680224 -0.0096,0.21116 0.0308,0.37532 0.0818,0.510168 0.10176,0.26964 0.23476,0.470804 0.40894,0.65188 l 1.035988,1.07702 c -0.10052,0.21392 -0.19428,0.424604 -0.27264,0.65188 h -1.444928 c -0.24164,0 -0.482516,0.0336 -0.736092,0.14172 -0.1268,0.054 -0.2664,0.13 -0.408944,0.28344 -0.14252,0.15344 -0.27264,0.42086 -0.27264,0.708568 v 1.98398 c 0,0.28772 0.13008,0.555144 0.27264,0.708568 0.14252,0.15344 0.28216,0.22944 0.408944,0.28344 0.25356,0.10796 0.494432,0.14172 0.736092,0.14172 h 1.444928 c 0.07836,0.22728 0.17212,0.437952 0.27264,0.65188 l -1.035988,1.077016 c -0.17416,0.18108 -0.30716,0.38224 -0.40894,0.65188 -0.05088,0.13484 -0.09148,0.299 -0.0818,0.510164 0.0096,0.21116 0.0858,0.485984 0.27264,0.680224 l 1.335876,1.388792 c 0.18684,0.19424 0.451184,0.27336 0.654308,0.28344 0.20312,0.01 0.36104,-0.032 0.490728,-0.08504 0.2594,-0.1058 0.452864,-0.24404 0.627044,-0.42514 l 1.035984,-1.07702 c 0.20576,0.10452 0.408428,0.20196 0.62704,0.28344 v 1.50216 c 0,0.25124 0.0324,0.501632 0.13632,0.765252 0.05192,0.1318 0.12504,0.27696 0.27264,0.42514 0.1476,0.1482 0.404824,0.28344 0.681572,0.28344 h 1.908392 c 0.27676,0 0.533992,-0.13524 0.681568,-0.28344 0.14756,-0.1482 0.22068,-0.29332 0.27264,-0.42514 0.10388,-0.26364 0.13632,-0.51402 0.13632,-0.765252 v -1.50216 c 0.2186,-0.08148 0.421268,-0.17892 0.627044,-0.28344 l 1.035984,1.07702 c 0.17416,0.18108 0.36768,0.31932 0.627044,0.42514 0.12968,0.05292 0.2876,0.09512 0.490728,0.08504 0.20312,-0.01 0.467464,-0.0892 0.654304,-0.28344 l 1.335876,-1.388792 c 0.18684,-0.19424 0.26296,-0.469056 0.27264,-0.680224 0.0096,-0.21116 -0.0308,-0.37532 -0.0818,-0.510164 -0.10176,-0.26964 -0.234758,-0.470804 -0.40894,-0.65188 l -1.035988,-1.077024 c 0.10052,-0.21392 0.19428,-0.424604 0.27264,-0.651876 h 1.444924 c 0.24168,0 0.48252,-0.0336 0.736096,-0.14172 0.1268,-0.054 0.2664,-0.13 0.408944,-0.28344 0.14252,-0.15344 0.27264,-0.42086 0.27264,-0.708568 v -1.983984 c 0,-0.28772 -0.13008,-0.55514 -0.27264,-0.708564 -0.14252,-0.15344 -0.28216,-0.22944 -0.408944,-0.28344 -0.25356,-0.10796 -0.494436,-0.14172 -0.736096,-0.14172 h -1.444924 c -0.07836,-0.22728 -0.17212,-0.437956 -0.27264,-0.65188 l 1.035992,-1.07702 c 0.17416,-0.18108 0.30716,-0.38224 0.40894,-0.65188 0.05088,-0.13484 0.09148,-0.299 0.0818,-0.510168 -0.0096,-0.21116 -0.0858,-0.48598 -0.27264,-0.680224 L 43.582551,65.35897 c -0.18684,-0.19424 -0.451184,-0.27336 -0.654308,-0.28344 -0.20312,-0.01 -0.36104,0.032 -0.490728,0.085 -0.2594,0.1058 -0.452864,0.24404 -0.627044,0.42514 l -1.035984,1.07702 c -0.20576,-0.10452 -0.408428,-0.20196 -0.62704,-0.28344 v -1.502156 c 0,-0.25124 -0.0324,-0.501632 -0.13632,-0.765256 -0.05192,-0.1318 -0.12504,-0.27696 -0.27264,-0.42514 -0.14756,-0.1482 -0.40482,-0.28344 -0.681568,-0.28344 h -0.13632 l 4.934556,-5.810232 a 0.84087076,0.87417804 0 0 0 -0.627044,-1.445472 h -1.935656 v -4.563168 a 0.84087076,0.87417804 0 0 0 -0.845144,-0.87862 h -5.234444 a 0.84087076,0.87417804 0 0 0 -0.0818,0 z m 2.971634,20.094928 c 0.874254,0 1.58124,0.734992 1.58124,1.643872 0,0.90888 -0.706986,1.643872 -1.58124,1.643872 -0.874248,0 -1.581234,-0.734996 -1.581234,-1.643872 0,-0.90888 0.706986,-1.643872 1.581234,-1.643872 z"
       id="path4294"
       style="display:inline;overflow:visible;visibility:visible;opacity:0.05;fill:#000000;fill-opacity:1;fill-rule:nonzero;stroke:none;stroke-width:0.891112;marker:none;enable-background:accumulate" />
    <path
       d="m 35.212865,51.584422 v 5.441788 h -2.7808 l 5.39802,6.348748 5.398024,-6.348748 h -2.7808 v -5.441788 z m 1.935652,12.6975 c -0.15084,0 -0.24536,0.26748 -0.24536,0.595196 v 2.069012 c -0.60724,0.14376 -1.1791,0.401212 -1.690288,0.736908 l -1.417664,-1.473816 c -0.22292,-0.23172 -0.465864,-0.33764 -0.572516,-0.22676 l -1.335876,1.388788 c -0.10664,0.11088 -0.0048,0.36348 0.21812,0.595196 l 1.41766,1.473816 c -0.32292,0.53144 -0.570556,1.125952 -0.708832,1.757244 h -1.99018 c -0.31524,0 -0.572516,0.09828 -0.572516,0.25508 v 1.983984 c 0,0.1568 0.25728,0.25508 0.572516,0.25508 h 1.99018 c 0.13828,0.631292 0.38592,1.225804 0.708832,1.757244 l -1.41766,1.473812 c -0.22292,0.23172 -0.32476,0.48432 -0.21812,0.595196 l 1.335876,1.388792 c 0.10664,0.11088 0.3496,0.0048 0.572516,-0.22676 l 1.417664,-1.473816 c 0.511188,0.33568 1.083048,0.593156 1.690288,0.736908 v 2.069012 c 0,0.32772 0.09452,0.595196 0.24536,0.595196 h 1.908392 c 0.15084,0 0.24536,-0.26748 0.24536,-0.595196 v -2.069012 c 0.60724,-0.14376 1.1791,-0.401212 1.690292,-0.736908 l 1.417664,1.473816 c 0.22288,0.23172 0.46586,0.33764 0.572518,0.22676 l 1.335876,-1.388792 c 0.10664,-0.11088 0.0048,-0.36348 -0.21812,-0.595196 l -1.417664,-1.473812 c 0.32292,-0.53144 0.57056,-1.125952 0.708832,-1.757244 h 1.99018 c 0.31524,0 0.57252,-0.09828 0.57252,-0.25508 v -1.983984 c 0,-0.1568 -0.25728,-0.25508 -0.57252,-0.25508 h -1.99018 c -0.13828,-0.631292 -0.38592,-1.225804 -0.708832,-1.757244 l 1.417664,-1.473816 c 0.22288,-0.23172 0.32476,-0.48432 0.21812,-0.595196 l -1.335876,-1.388788 c -0.10664,-0.11088 -0.349602,-0.0048 -0.572518,0.22676 l -1.417664,1.473816 c -0.511192,-0.33568 -1.08305,-0.593156 -1.690292,-0.736908 v -2.069012 c 0,-0.32772 -0.09452,-0.595196 -0.24536,-0.595196 z m 0.954196,5.640184 c 1.333576,0 2.426386,1.136096 2.426386,2.522496 0,1.3864 -1.092808,2.522492 -2.426386,2.522492 -1.333572,0 -2.426384,-1.136092 -2.426384,-2.522492 0,-1.3864 1.092812,-2.522496 2.426384,-2.522496 z"
       id="path2317"
       style="display:inline;overflow:visible;visibility:visible;fill:url(#radialGradient2985);fill-opacity:1;fill-rule:nonzero;stroke:none;stroke-width:0.891112;marker:none;enable-background:accumulate" />
    <path
       d="m 42.127899,57.449462 -4.297812,5.179588 -4.39424,-5.14936 h 2.213224 v -5.441784 h 4.362036 v 5.441784 z"
       id="path2777"
       style="display:inline;overflow:visible;visibility:visible;fill:none;stroke:url(#linearGradient2979);stroke-width:0.888;stroke-linecap:butt;stroke-linejoin:miter;stroke-miterlimit:4;stroke-dasharray:none;stroke-dashoffset:0;stroke-opacity:1;marker:none" />
    <path
       d="m 37.339359,64.707062 c -0.01,0.0488 -0.0272,0.09088 -0.0272,0.17004 v 2.069012 a 0.42037372,0.43702492 0 0 1 -0.32716,0.42514 c -0.557004,0.13184 -1.080408,0.36924 -1.553976,0.68022 a 0.42037372,0.43702492 0 0 1 -0.517992,-0.05668 l -1.417664,-1.473816 c -0.04652,-0.0484 -0.07288,-0.06016 -0.10904,-0.08504 l -1.063248,1.10536 c 0.024,0.0376 0.0352,0.065 0.0818,0.11336 l 1.417664,1.47382 a 0.42037372,0.43702492 0 0 1 0.05452,0.538508 c -0.29912,0.492324 -0.527468,1.036464 -0.654304,1.615528 a 0.42037372,0.43702492 0 0 1 -0.40894,0.34012 h -1.99018 c -0.07616,0 -0.11664,0.0176 -0.16356,0.0284 v 1.587188 c 0.04692,0.0104 0.08744,0.0284 0.16356,0.0284 h 1.99018 a 0.42037372,0.43702492 0 0 1 0.40894,0.34012 c 0.12684,0.579068 0.35516,1.123208 0.654308,1.615532 a 0.42037372,0.43702492 0 0 1 -0.05452,0.538512 l -1.417664,1.473816 c -0.04652,0.0484 -0.05788,0.07576 -0.0818,0.11336 l 1.063248,1.105364 c 0.036,-0.0248 0.06252,-0.0368 0.10904,-0.08504 l 1.417664,-1.473816 a 0.42037372,0.43702492 0 0 1 0.517992,-0.05668 c 0.473564,0.311 0.996972,0.548364 1.553976,0.680224 a 0.42037372,0.43702492 0 0 1 0.327158,0.42514 v 2.069012 c 0,0.07916 0.0172,0.12124 0.0272,0.17004 h 1.526712 c 0.01,-0.0488 0.0272,-0.09088 0.0272,-0.17004 v -2.069012 a 0.42037372,0.43702492 0 0 1 0.32716,-0.42514 c 0.557004,-0.13184 1.080412,-0.36924 1.553976,-0.680224 a 0.42037372,0.43702492 0 0 1 0.517992,0.05668 l 1.417664,1.473816 c 0.04652,0.0484 0.07288,0.06016 0.10904,0.08504 l 1.063244,-1.105364 c -0.024,-0.0376 -0.0352,-0.06496 -0.0818,-0.11336 l -1.41766,-1.473816 a 0.42037372,0.43702492 0 0 1 -0.05452,-0.538512 c 0.29912,-0.492324 0.527468,-1.036464 0.654304,-1.615532 a 0.42037372,0.43702492 0 0 1 0.40894,-0.34012 h 1.99018 c 0.07616,0 0.11664,-0.0176 0.16356,-0.0284 v -1.587188 c -0.04692,-0.0104 -0.0874,-0.0284 -0.16356,-0.0284 h -1.99018 a 0.42037372,0.43702492 0 0 1 -0.40894,-0.34012 c -0.12684,-0.579068 -0.35516,-1.123208 -0.654304,-1.615532 a 0.42037372,0.43702492 0 0 1 0.05452,-0.538508 l 1.41766,-1.47382 c 0.04652,-0.0484 0.05788,-0.0758 0.0818,-0.11336 l -1.063248,-1.10536 c -0.036,0.0248 -0.06252,0.0368 -0.10904,0.08504 l -1.417664,1.473812 a 0.42037372,0.43702492 0 0 1 -0.517992,0.05668 c -0.473568,-0.311 -0.996972,-0.548372 -1.553976,-0.680228 a 0.42037372,0.43702492 0 0 1 -0.32716,-0.42514 v -2.069012 c 0,-0.07916 -0.0172,-0.12124 -0.0272,-0.17004 z m 0.763354,4.789904 c 1.563208,0 2.835324,1.322512 2.835324,2.947636 0,1.625124 -1.272116,2.947632 -2.835324,2.947632 -1.563204,0 -2.835324,-1.322508 -2.835324,-2.947632 0,-1.625124 1.27212,-2.947636 2.835324,-2.947636 z"
       id="path4243"
       style="display:inline;overflow:visible;visibility:visible;fill:none;stroke:url(#linearGradient2975);stroke-width:0.88952;stroke-opacity:1;marker:none;enable-background:accumulate" />
    <rect
       y="47.233318"
       x="21.695835"
       height="1.0583318"
       width="24.341669"
       id="rect1720"
       style="opacity:1;fill:#64b5f6;fill-opacity:1;stroke-width:0.463335;stroke-linecap:round" />
    <rect
       y="46.704151"
       x="20.637503"
       height="2.1166666"
       width="1.0583333"
       id="rect1722"
       style="opacity:1;fill:#64b5f6;fill-opacity:1;stroke-width:0.529167;stroke-linecap:round" />
    <rect
       y="46.704151"
       x="46.037502"
       height="2.1166666"
       width="1.0583333"
       id="rect1724"
       style="opacity:1;fill:#64b5f6;fill-opacity:1;stroke-width:0.529167;stroke-linecap:round" />
    <rect
       y="46.704151"
       x="33.337502"
       height="2.1166666"
       width="1.0583333"
       id="rect1726"
       style="opacity:1;fill:#64b5f6;fill-opacity:1;stroke-width:0.529167;stroke-linecap:round" />
    <rect
       transform="rotate(90)"
       y="-15.874998"
       x="50.937485"
       height="1.0583318"
       width="30.691666"
       id="rect1728"
       style="opacity:1;fill:#64b5f6;fill-opacity:1;stroke-width:0.520272;stroke-linecap:round" />
    <rect
       transform="rotate(90)"
       y="-16.404167"
       x="49.87915"
       height="2.1166666"
       width="1.0583333"
       id="rect1730"
       style="opacity:1;fill:#64b5f6;fill-opacity:1;stroke-width:0.529167;stroke-linecap:round" />
    <rect
       transform="rotate(90)"
       y="-16.404167"
       x="81.62915"
       height="2.1166666"
       width="1.0583333"
       id="rect1732"
       style="opacity:1;fill:#64b5f6;fill-opacity:1;stroke-width:0.529167;stroke-linecap:round" />
    <rect
       transform="rotate(90)"
       y="-16.404167"
       x="65.75415"
       height="2.1166666"
       width="1.0583333"
       id="rect1734"
       style="opacity:1;fill:#64b5f6;fill-opacity:1;stroke-width:0.529167;stroke-linecap:round" />
    <rect
       y="84.274986"
       x="21.695835"
       height="1.0583318"
       width="24.341669"
       id="rect1736"
       style="opacity:1;fill:#64b5f6;fill-opacity:1;stroke-width:0.463335;stroke-linecap:round" />
    <rect
       y="83.745819"
       x="20.637503"
       height="2.1166666"
       width="1.0583333"
       id="rect1738"
       style="opacity:1;fill:#64b5f6;fill-opacity:1;stroke-width:0.529167;stroke-linecap:round" />
    <rect
       y="83.745819"
       x="46.037502"
       height="2.1166666"
       width="1.0583333"
       id="rect1740"
       style="opacity:1;fill:#64b5f6;fill-opacity:1;stroke-width:0.529167;stroke-linecap:round" />
    <rect
       y="83.745819"
       x="33.337502"
       height="2.1166666"
       width="1.0583333"
       id="rect1742"
       style="opacity:1;fill:#64b5f6;fill-opacity:1;stroke-width:0.529167;stroke-linecap:round" />
    <rect
       y="54.112484"
       x="18.520834"
       height="1.0583333"
       width="5.8208327"
       id="rect1744"
       style="opacity:1;fill:#1565c0;fill-opacity:1;stroke-width:0.402636;stroke-linecap:round" />
    <rect
       y="56.229153"
       x="20.372919"
       height="1.0583333"
       width="7.1437507"
       id="rect1746"
       style="opacity:1;fill:#1565c0;fill-opacity:1;stroke-width:0.446049;stroke-linecap:round" />
    <rect
       y="58.345818"
       x="20.372919"
       height="1.0583333"
       width="8.2020836"
       id="rect1748"
       style="opacity:1;fill:#1565c0;fill-opacity:1;stroke-width:0.477949;stroke-linecap:round" />
    <rect
       y="60.462486"
       x="18.520834"
       height="1.0583333"
       width="5.8208327"
       id="rect1750"
       style="opacity:1;fill:#1565c0;fill-opacity:1;stroke-width:0.402636;stroke-linecap:round" />
    <rect
       y="62.314568"
       x="20.372919"
       height="1.0583333"
       width="5.5562506"
       id="rect1752"
       style="opacity:1;fill:#1565c0;fill-opacity:1;stroke-width:0.393378;stroke-linecap:round" />
    <rect
       y="64.431236"
       x="18.520834"
       height="1.0583333"
       width="5.8208327"
       id="rect1754"
       style="opacity:1;fill:#1565c0;fill-opacity:1;stroke-width:0.402636;stroke-linecap:round" />
    <rect
       y="44.058315"
       x="11.641666"
       height="0.52916783"
       width="38.099998"
       id="rect2418"
       style="opacity:0.2;fill:#ffffff;fill-opacity:1;stroke-width:0.529167;stroke-linecap:round" />
  </g>
</svg>
