<?xml version="1.0" encoding="UTF-8" standalone="no"?>
<!-- Created with Inkscape (http://www.inkscape.org/) -->

<svg
   xmlns:dc="http://purl.org/dc/elements/1.1/"
   xmlns:cc="http://creativecommons.org/ns#"
   xmlns:rdf="http://www.w3.org/1999/02/22-rdf-syntax-ns#"
   xmlns:svg="http://www.w3.org/2000/svg"
   xmlns="http://www.w3.org/2000/svg"
   xmlns:xlink="http://www.w3.org/1999/xlink"
   xmlns:sodipodi="http://sodipodi.sourceforge.net/DTD/sodipodi-0.dtd"
   xmlns:inkscape="http://www.inkscape.org/namespaces/inkscape"
   width="48px"
   height="48px"
   id="svg3832"
   version="1.1"
   inkscape:version="0.92.3 (2405546, 2018-03-11)"
   sodipodi:docname="appimage_logo.svg">
  <defs
     id="defs3834">
    <linearGradient
       inkscape:collect="always"
       xlink:href="#linearGradient3308-4-6-931-761-0"
       id="linearGradient2975"
       gradientUnits="userSpaceOnUse"
       x1="24.3125"
       y1="22.96875"
       x2="24.3125"
       y2="41.03125"
       gradientTransform="matrix(0.88144658,0,0,0.88335662,2.9219293,1.913627)" />
    <linearGradient
       id="linearGradient3308-4-6-931-761-0">
      <stop
         id="stop2919-2"
         style="stop-color:#ffffff;stop-opacity:1"
         offset="0" />
      <stop
         id="stop2921-76"
         style="stop-color:#ffffff;stop-opacity:0"
         offset="1" />
    </linearGradient>
    <linearGradient
       inkscape:collect="always"
       xlink:href="#linearGradient4222"
       id="linearGradient2979"
       gradientUnits="userSpaceOnUse"
       gradientTransform="matrix(0,0.32728071,-0.31886295,0,32.457719,7.361369)"
       x1="7.6485429"
       y1="26.437023"
       x2="41.861729"
       y2="26.437023" />
    <linearGradient
       id="linearGradient4222">
      <stop
         id="stop4224"
         style="stop-color:#ffffff;stop-opacity:1"
         offset="0" />
      <stop
         id="stop4226"
         style="stop-color:#ffffff;stop-opacity:0"
         offset="1" />
    </linearGradient>
    <linearGradient
       inkscape:collect="always"
       xlink:href="#linearGradient3308-4-6-931-761"
       id="linearGradient2982"
       gradientUnits="userSpaceOnUse"
       gradientTransform="matrix(0.88235861,0,0,0.88244565,12.808705,-20.496513)"
       x1="23.99999"
       y1="4.999989"
       x2="23.99999"
       y2="43" />
    <linearGradient
       id="linearGradient3308-4-6-931-761">
      <stop
         id="stop2919"
         style="stop-color:#ffffff;stop-opacity:1"
         offset="0" />
      <stop
         id="stop2921"
         style="stop-color:#ffffff;stop-opacity:0"
         offset="1" />
    </linearGradient>
    <radialGradient
       inkscape:collect="always"
       xlink:href="#linearGradient3575"
       id="radialGradient2985"
       gradientUnits="userSpaceOnUse"
       gradientTransform="matrix(0,0.90650126,-1.4597747,8.3099303e-4,-46.525003,-38.130982)"
       cx="48.42384"
       cy="-48.027504"
       fx="48.42384"
       fy="-48.027504"
       r="38.212933" />
    <linearGradient
       id="linearGradient3575">
      <stop
         id="stop3577"
         style="stop-color:#fafafa;stop-opacity:1"
         offset="0" />
      <stop
         id="stop3579"
         style="stop-color:#e6e6e6;stop-opacity:1"
         offset="1" />
    </linearGradient>
    <radialGradient
       inkscape:collect="always"
       xlink:href="#linearGradient3993"
       id="radialGradient2990"
       gradientUnits="userSpaceOnUse"
       gradientTransform="matrix(0,1.8069721,-2.418817,-7.4689646e-8,19.870619,4.1391587)"
       cx="9.3330879"
       cy="8.4497671"
       fx="9.3330879"
       fy="8.4497671"
       r="19.99999" />
    <linearGradient
       id="linearGradient3993">
      <stop
         offset="0"
         style="stop-color:#808000;stop-opacity:1"
         id="stop3995" />
      <stop
         offset="1"
         style="stop-color:#d4aa00;stop-opacity:1"
         id="stop4001" />
    </linearGradient>
    <linearGradient
       inkscape:collect="always"
       xlink:href="#linearGradient2508"
       id="linearGradient2992"
       gradientUnits="userSpaceOnUse"
       gradientTransform="matrix(0.8824404,0,0,0.88236384,-21.746489,12.790626)"
       x1="14.048676"
       y1="44.137306"
       x2="14.048676"
       y2="4.0000005" />
    <linearGradient
       id="linearGradient2508">
      <stop
         offset="0"
         style="stop-color:#2e4a5a;stop-opacity:1"
         id="stop2510" />
      <stop
         offset="1"
         style="stop-color:#6e8796;stop-opacity:1"
         id="stop2512" />
    </linearGradient>
    <radialGradient
       cx="4.9929786"
       cy="43.5"
       r="2.5"
       fx="4.9929786"
       fy="43.5"
       id="radialGradient2873-966-168"
       xlink:href="#linearGradient3688-166-749"
       gradientUnits="userSpaceOnUse"
       gradientTransform="matrix(2.003784,0,0,1.4,27.98813,-17.4)" />
    <linearGradient
       id="linearGradient3688-166-749">
      <stop
         id="stop2883"
         style="stop-color:#181818;stop-opacity:1"
         offset="0" />
      <stop
         id="stop2885"
         style="stop-color:#181818;stop-opacity:0"
         offset="1" />
    </linearGradient>
    <radialGradient
       cx="4.9929786"
       cy="43.5"
       r="2.5"
       fx="4.9929786"
       fy="43.5"
       id="radialGradient2875-742-326"
       xlink:href="#linearGradient3688-464-309"
       gradientUnits="userSpaceOnUse"
       gradientTransform="matrix(2.003784,0,0,1.4,-20.01187,-104.4)" />
    <linearGradient
       id="linearGradient3688-464-309">
      <stop
         id="stop2889"
         style="stop-color:#181818;stop-opacity:1"
         offset="0" />
      <stop
         id="stop2891"
         style="stop-color:#181818;stop-opacity:0"
         offset="1" />
    </linearGradient>
    <linearGradient
       x1="25.058096"
       y1="47.027729"
       x2="25.058096"
       y2="39.999443"
       id="linearGradient2877-634-617"
       xlink:href="#linearGradient3702-501-757"
       gradientUnits="userSpaceOnUse" />
    <linearGradient
       id="linearGradient3702-501-757">
      <stop
         id="stop2895"
         style="stop-color:#181818;stop-opacity:0"
         offset="0" />
      <stop
         id="stop2897"
         style="stop-color:#181818;stop-opacity:1"
         offset="0.5" />
      <stop
         id="stop2899"
         style="stop-color:#181818;stop-opacity:0"
         offset="1" />
    </linearGradient>
    <radialGradient
       id="radialGradient2260"
       xlink:href="#linearGradient3041"
       gradientUnits="userSpaceOnUse"
       cy="39.125"
       cx="24.812"
       gradientTransform="matrix(1,0,0,0.37456,0,24.47)"
       r="17.688" />
    <linearGradient
       id="linearGradient3041">
      <stop
         id="stop3043"
         offset="0" />
      <stop
         id="stop3045"
         stop-opacity="0"
         offset="1" />
    </linearGradient>
    <radialGradient
       id="radialGradient3047"
       xlink:href="#linearGradient3041"
       gradientUnits="userSpaceOnUse"
       cy="39.125"
       cx="24.812"
       gradientTransform="matrix(1,0,0,0.37456,0,24.47)"
       r="17.688" />
    <linearGradient
       id="linearGradient3055"
       x1="19.648001"
       gradientUnits="userSpaceOnUse"
       y1="42.254002"
       gradientTransform="matrix(0.87827,0,0,0.87827,2.537,4.9677)"
       x2="20.631001"
       y2="6.7758002">
      <stop
         id="stop3051"
         stop-color="#b6b6b6"
         offset="0" />
      <stop
         id="stop2262"
         stop-color="#f2f2f2"
         offset=".5" />
      <stop
         id="stop2264"
         stop-color="#fafafa"
         offset=".67613" />
      <stop
         id="stop2268"
         stop-color="#d8d8d8"
         offset=".84052" />
      <stop
         id="stop2266"
         stop-color="#f2f2f2"
         offset=".875" />
      <stop
         id="stop3053"
         stop-color="#dbdbdb"
         offset="1" />
    </linearGradient>
    <linearGradient
       id="linearGradient3067"
       x1="50.153"
       gradientUnits="userSpaceOnUse"
       y1="-3.6324"
       gradientTransform="matrix(0.87827,0,0,0.87827,5.3283,1.6502)"
       x2="25.291"
       y2="-4.3003001">
      <stop
         id="stop3063"
         stop-color="#fff"
         offset="0" />
      <stop
         id="stop3065"
         offset="1" />
    </linearGradient>
    <linearGradient
       id="linearGradient3083"
       x1="38.228001"
       gradientUnits="userSpaceOnUse"
       y1="13.603"
       gradientTransform="matrix(0.87827,0,0,0.87827,2.8475,5.5887)"
       x2="37.535"
       y2="6.6286001">
      <stop
         id="stop3079"
         stop-color="#98a0a9"
         offset="0" />
      <stop
         id="stop3081"
         stop-color="#c3d0dd"
         offset="1" />
    </linearGradient>
    <linearGradient
       id="linearGradient2256"
       y2="9.6569004"
       gradientUnits="userSpaceOnUse"
       y1="19.822001"
       x2="40.859001"
       x1="31.177">
      <stop
         id="stop2252"
         stop-color="#fff"
         offset="0" />
      <stop
         id="stop2254"
         stop-color="#fff"
         stop-opacity="0"
         offset="1" />
    </linearGradient>
    <linearGradient
       id="linearGradient3093"
       x1="9.7503004"
       gradientUnits="userSpaceOnUse"
       y1="32.284"
       gradientTransform="matrix(0.87827,0,0,0.87827,2.537,4.9677)"
       x2="16.915001"
       y2="39.443001">
      <stop
         id="stop3089"
         stop-color="#3465a4"
         offset="0" />
      <stop
         id="stop3095"
         stop-color="#9fbce1"
         offset="0" />
      <stop
         id="stop2242"
         stop-color="#6b95ca"
         offset="0" />
      <stop
         id="stop2244"
         stop-color="#3d6aa5"
         offset=".75" />
      <stop
         id="stop3091"
         stop-color="#386eb4"
         offset="1" />
    </linearGradient>
    <linearGradient
       id="linearGradient2263"
       x1="12.005"
       gradientUnits="userSpaceOnUse"
       y1="35.688"
       gradientTransform="matrix(1.0073,-0.026365,0.026365,1.0073,1.5934,0.079191)"
       x2="10.651"
       y2="33.195">
      <stop
         id="stop2259"
         stop-color="#fff"
         offset="0" />
      <stop
         id="stop2261"
         stop-color="#fff"
         stop-opacity="0"
         offset="1" />
    </linearGradient>
    <linearGradient
       id="linearGradient2271"
       x1="14.018"
       gradientUnits="userSpaceOnUse"
       y1="36.943001"
       gradientTransform="matrix(0.8781,-0.017324,0.017324,0.8781,2.1637,4.0679)"
       x2="15.416"
       y2="38.268002">
      <stop
         id="stop2267"
         offset="0" />
      <stop
         id="stop2269"
         stop-opacity="0"
         offset="1" />
    </linearGradient>
  </defs>
  <sodipodi:namedview
     id="base"
     pagecolor="#ffffff"
     bordercolor="#666666"
     borderopacity="1.0"
     inkscape:pageopacity="0.0"
     inkscape:pageshadow="2"
     inkscape:zoom="7"
     inkscape:cx="14.02613"
     inkscape:cy="18.63342"
     inkscape:current-layer="layer1"
     showgrid="true"
     inkscape:grid-bbox="true"
     inkscape:document-units="px"
     inkscape:window-width="1366"
     inkscape:window-height="703"
     inkscape:window-x="0"
     inkscape:window-y="0"
     inkscape:window-maximized="1" />
  <metadata
     id="metadata3837">
    <rdf:RDF>
      <cc:Work
         rdf:about="">
        <dc:format>image/svg+xml</dc:format>
        <dc:type
           rdf:resource="http://purl.org/dc/dcmitype/StillImage" />
        <dc:title />
      </cc:Work>
    </rdf:RDF>
  </metadata>
  <g
     id="layer1"
     inkscape:label="Layer 1"
     inkscape:groupmode="layer">
    <rect
       style="fill:url(#radialGradient2990);fill-opacity:1;stroke:url(#linearGradient2992);stroke-width:0.88240218;stroke-linecap:round;stroke-linejoin:round;stroke-miterlimit:4;stroke-dasharray:none;stroke-dashoffset:0;stroke-opacity:1"
       id="rect5505"
       y="16.761263"
       x="-17.775511"
       ry="1.9696264"
       rx="1.9697973"
       height="34.412186"
       width="34.415173"
       transform="matrix(0.69201224,-0.72188577,0.72038739,0.69357192,0,0)" />
    <path
       style="display:inline;overflow:visible;visibility:visible;opacity:0.05;fill:#000000;fill-opacity:1;fill-rule:nonzero;stroke:none;stroke-width:0.88397831;marker:none;enable-background:accumulate"
       id="path4294-1"
       d="m 21.432308,8.0695187 a 1.7774465,1.781298 0 0 0 -1.790439,1.7943174 v 3.5058209 h -1.019173 a 1.7774465,1.781298 0 0 0 -1.322169,2.981329 l 4.462324,5.079302 c -0.05564,0.09785 -0.157536,0.217333 -0.192817,0.303652 -0.172673,0.422472 -0.220361,0.738955 -0.220361,1.076592 v 0.11042 l -0.08263,-0.08282 c -0.245195,-0.245727 -0.528274,-0.463549 -0.964078,-0.63491 -0.217903,-0.08568 -0.47007,-0.156356 -0.853902,-0.138025 -0.383831,0.01833 -0.929094,0.185772 -1.294625,0.552098 l -1.349715,1.35264 c -0.365527,0.366319 -0.532609,0.912768 -0.550904,1.29743 -0.01828,0.384664 0.05223,0.637374 0.137726,0.855752 0.170993,0.436756 0.388336,0.72044 0.63354,0.966172 l 0.08263,0.08282 h -0.110181 c -0.336905,0 -0.652706,0.04779 -1.074263,0.220838 -0.210779,0.08652 -0.474469,0.189911 -0.743721,0.469283 -0.269251,0.279373 -0.550904,0.808085 -0.550904,1.35264 v 1.932342 c 0,0.54456 0.281654,1.07327 0.550904,1.352641 0.269251,0.27937 0.532942,0.382758 0.743721,0.469283 0.421556,0.173047 0.737357,0.22084 1.074263,0.22084 h 0.110181 l -0.08263,0.08282 c -0.245197,0.245728 -0.462548,0.52942 -0.63354,0.96617 -0.0855,0.218375 -0.156018,0.471087 -0.137726,0.855752 0.01829,0.384666 0.185372,0.931108 0.550904,1.297431 l 1.349715,1.352639 c 0.365528,0.366326 0.910792,0.533764 1.294625,0.552098 0.383834,0.01834 0.635996,-0.05234 0.853902,-0.138024 0.435809,-0.171362 0.718882,-0.389179 0.964081,-0.634913 l 0.08263,-0.08282 v 0.110419 c 0,0.337638 0.04769,0.654122 0.220361,1.076593 0.08634,0.211233 0.189501,0.475497 0.468269,0.745332 0.278766,0.269834 0.806332,0.552096 1.349714,0.552096 h 1.928165 c 0.543382,0 1.070948,-0.282261 1.349714,-0.552096 0.278768,-0.269836 0.381933,-0.534098 0.46827,-0.745332 0.172672,-0.422471 0.220362,-0.738957 0.220362,-1.076593 v -0.110419 l 0.08263,0.08282 c 0.245197,0.245728 0.528277,0.463551 0.964082,0.634913 0.217903,0.08568 0.470069,0.156357 0.853901,0.138024 0.383834,-0.01832 0.929097,-0.185773 1.294625,-0.552098 l 1.349715,-1.352639 c 0.365534,-0.366322 0.532611,-0.912765 0.550905,-1.297431 0.0183,-0.384665 -0.05224,-0.637374 -0.137727,-0.855752 -0.170991,-0.436754 -0.388336,-0.720438 -0.633538,-0.96617 l -0.08263,-0.08282 h 0.110181 c 0.336905,0 0.652706,-0.04779 1.074261,-0.22084 0.210779,-0.08651 0.474471,-0.189912 0.743721,-0.469283 0.269251,-0.279372 0.550905,-0.808083 0.550905,-1.352641 V 29.21487 c 0,-0.544554 -0.281653,-1.073266 -0.550905,-1.35264 -0.269256,-0.279376 -0.532946,-0.382762 -0.743726,-0.469286 -0.421557,-0.173048 -0.737357,-0.220838 -1.074262,-0.220838 h -0.11018 l 0.08263,-0.08282 c 0.245196,-0.24573 0.462547,-0.529422 0.633538,-0.966171 0.0855,-0.218376 0.156019,-0.471089 0.137727,-0.855753 -0.01829,-0.384663 -0.185371,-0.931107 -0.550905,-1.29743 l -1.349715,-1.35264 c -0.365525,-0.366323 -0.910789,-0.533763 -1.294625,-0.552098 -0.383833,-0.01834 -0.635995,0.05234 -0.853901,0.138025 -0.43581,0.171363 -0.718883,0.38918 -0.964082,0.634913 l -0.08263,0.08282 v -0.11042 c 0,-0.337636 -0.04769,-0.654119 -0.220361,-1.076592 -0.08031,-0.196501 -0.201083,-0.441839 -0.440724,-0.690121 l 4.159325,-4.692833 A 1.7774465,1.781298 0 0 0 29.530598,13.369657 H 28.511425 V 9.8638361 A 1.7774465,1.781298 0 0 0 26.720987,8.0695187 Z M 24.3521,29.518522 c 0.376463,0 0.661085,0.285239 0.661085,0.662517 0,0.377278 -0.284622,0.662516 -0.661085,0.662516 -0.376461,0 -0.661085,-0.28524 -0.661085,-0.662516 0,-0.377277 0.284624,-0.662517 0.661085,-0.662517 z"
       inkscape:connector-curvature="0" />
    <path
       style="display:inline;overflow:visible;visibility:visible;opacity:0.05;fill:#000000;fill-opacity:1;fill-rule:nonzero;stroke:none;stroke-width:0.88397831;marker:none;enable-background:accumulate"
       id="path4294"
       d="m 21.349673,9.0080844 a 0.84958289,0.85142385 0 0 0 -0.771267,0.8557517 v 4.4443889 h -1.95571 a 0.84958289,0.85142385 0 0 0 -0.633539,1.407848 l 5.095863,5.769425 c -0.139986,0.05442 -0.301311,0.084 -0.385632,0.165628 -0.149107,0.144328 -0.22298,0.285695 -0.275453,0.414073 -0.104943,0.25676 -0.137726,0.50064 -0.137726,0.745333 v 1.46306 c -0.220878,0.07935 -0.425631,0.174261 -0.633539,0.276049 l -1.046719,-1.048987 c -0.175981,-0.176362 -0.37147,-0.311025 -0.633539,-0.414073 -0.131035,-0.05152 -0.29059,-0.09262 -0.495815,-0.08282 -0.205223,0.0099 -0.472305,0.08686 -0.661084,0.276049 l -1.349714,1.352641 c -0.188778,0.189185 -0.265673,0.456848 -0.275453,0.662516 -0.0097,0.20567 0.03122,0.365569 0.08263,0.496888 0.102825,0.262641 0.237194,0.45855 0.413178,0.634913 l 1.046718,1.048987 c -0.101567,0.208356 -0.196269,0.413554 -0.275451,0.634911 h -1.459897 c -0.244164,0 -0.487517,0.03285 -0.743721,0.138025 -0.128102,0.05259 -0.269161,0.126619 -0.413178,0.276049 -0.144016,0.14943 -0.275451,0.409904 -0.275451,0.690122 v 1.932342 c 0,0.28022 0.131436,0.540694 0.275451,0.690122 0.144016,0.149431 0.285077,0.223465 0.413178,0.276049 0.256204,0.105172 0.499557,0.138026 0.743721,0.138026 h 1.459897 c 0.07917,0.221357 0.173884,0.426554 0.275451,0.634913 l -1.046718,1.048985 c -0.17598,0.176362 -0.310353,0.372275 -0.413178,0.634912 -0.05141,0.131319 -0.09241,0.291219 -0.08263,0.496889 0.0097,0.20567 0.08668,0.473329 0.275453,0.662518 l 1.349714,1.352639 c 0.188778,0.189191 0.45586,0.266247 0.661084,0.276049 0.205226,0.0099 0.364779,-0.03129 0.495815,-0.08282 0.262072,-0.103046 0.457558,-0.237707 0.633539,-0.414072 l 1.046719,-1.048985 c 0.207908,0.101786 0.412662,0.196694 0.633539,0.276049 v 1.463057 c 0,0.244694 0.03277,0.488574 0.137726,0.745333 0.05247,0.12838 0.126346,0.269745 0.275453,0.414074 0.149106,0.144328 0.409016,0.276049 0.688629,0.276049 h 1.928165 c 0.279614,0 0.539524,-0.13172 0.688631,-0.276049 0.149105,-0.14433 0.222979,-0.285694 0.275451,-0.414074 0.104943,-0.256759 0.137727,-0.50064 0.137727,-0.745333 v -1.463057 c 0.220878,-0.07935 0.425632,-0.174263 0.633538,-0.276049 l 1.046719,1.048985 c 0.175981,0.176361 0.371469,0.311026 0.63354,0.414072 0.131035,0.05152 0.290588,0.09262 0.495813,0.08282 0.205225,-0.0099 0.472308,-0.08686 0.661085,-0.276049 l 1.349715,-1.352639 c 0.188781,-0.189188 0.265671,-0.456848 0.275453,-0.662518 0.0097,-0.20567 -0.03122,-0.365569 -0.08263,-0.496889 -0.102825,-0.262639 -0.237194,-0.458548 -0.413178,-0.634912 l -1.046718,-1.048984 c 0.101568,-0.208358 0.19627,-0.413556 0.275453,-0.634913 h 1.459896 c 0.244165,0 0.487516,-0.03285 0.743721,-0.138026 0.128101,-0.05258 0.269162,-0.126618 0.413177,-0.276049 0.144017,-0.149428 0.275453,-0.409903 0.275453,-0.690122 v -1.932342 c 0,-0.280218 -0.131436,-0.540692 -0.275453,-0.690122 -0.144015,-0.14943 -0.285076,-0.223464 -0.413177,-0.276049 -0.256206,-0.105171 -0.499557,-0.138025 -0.743721,-0.138025 h -1.459896 c -0.07918,-0.221357 -0.173885,-0.426556 -0.275453,-0.634911 l 1.046718,-1.048987 c 0.175981,-0.176362 0.310353,-0.372275 0.413178,-0.634913 0.05142,-0.131319 0.09241,-0.291218 0.08263,-0.496888 -0.0097,-0.205669 -0.08668,-0.47333 -0.275453,-0.662516 l -1.349715,-1.35264 c -0.188776,-0.189189 -0.455859,-0.266246 -0.661085,-0.276049 -0.205226,-0.0099 -0.364777,0.03129 -0.495813,0.08282 -0.262071,0.103049 -0.457558,0.237708 -0.63354,0.414073 l -1.046719,1.048987 C 26.843623,24.447855 26.63887,24.352947 26.417991,24.273594 v -1.46306 c 0,-0.244693 -0.03277,-0.488573 -0.137727,-0.745333 -0.05247,-0.128379 -0.126345,-0.269744 -0.275451,-0.414073 C 25.855705,21.5068 25.595795,21.37508 25.316182,21.37508 h -0.137727 l 4.985684,-5.659005 a 0.84958289,0.85142385 0 0 0 -0.633541,-1.407849 h -1.95571 V 9.8638361 A 0.84958289,0.85142385 0 0 0 26.720987,9.0080844 h -5.288679 a 0.84958289,0.85142385 0 0 0 -0.08263,0 z M 24.3521,28.579954 c 0.883309,0 1.597622,0.715861 1.597622,1.601085 0,0.885222 -0.714313,1.601083 -1.597622,1.601083 -0.883307,0 -1.597621,-0.715862 -1.597621,-1.601083 0,-0.885223 0.714314,-1.601085 1.597621,-1.601085 z"
       inkscape:connector-curvature="0" />
    <path
       style="display:inline;overflow:visible;visibility:visible;fill:url(#radialGradient2985);fill-opacity:1;fill-rule:nonzero;stroke:none;stroke-width:0.88397831;marker:none;enable-background:accumulate"
       id="path2317"
       d="m 21.432308,9.8638361 v 5.3001399 h -2.809612 l 5.453951,6.183497 5.453951,-6.183497 H 26.720987 V 9.8638361 Z m 1.955709,12.3669929 c -0.152395,0 -0.247906,0.260521 -0.247906,0.579703 v 2.015156 c -0.613531,0.140009 -1.191316,0.39077 -1.707803,0.717728 L 19.999957,24.107962 C 19.774749,23.882267 19.529266,23.77913 19.421508,23.887123 l -1.349716,1.352639 c -0.10776,0.107995 -0.005,0.354008 0.220362,0.579703 l 1.432351,1.435455 c -0.32625,0.517605 -0.576468,1.096642 -0.716175,1.711503 h -2.0108 c -0.318492,0 -0.57845,0.09572 -0.57845,0.248444 v 1.932342 c 0,0.152726 0.259958,0.248444 0.57845,0.248444 h 2.0108 c 0.139707,0.614862 0.389925,1.193898 0.716175,1.711504 l -1.432351,1.435455 c -0.225207,0.225695 -0.328122,0.47171 -0.220362,0.579703 l 1.349716,1.352639 c 0.107758,0.107995 0.353241,0.0048 0.578449,-0.220838 l 1.432351,-1.435455 c 0.516487,0.326957 1.094272,0.577717 1.707803,0.717728 v 2.015155 c 0,0.319181 0.09552,0.579704 0.247906,0.579704 h 1.928165 c 0.152397,0 0.247907,-0.260523 0.247907,-0.579704 v -2.015155 c 0.613531,-0.140011 1.191316,-0.390771 1.707803,-0.717728 l 1.432351,1.435455 c 0.225208,0.225695 0.470689,0.328833 0.578449,0.220838 l 1.349715,-1.352639 c 0.10776,-0.107992 0.005,-0.354008 -0.220362,-0.579703 l -1.43235,-1.435455 c 0.326249,-0.517606 0.576468,-1.096642 0.716175,-1.711504 h 2.0108 c 0.318492,0 0.578449,-0.09572 0.578449,-0.248444 v -1.932342 c 0,-0.152725 -0.259957,-0.248444 -0.578449,-0.248444 h -2.0108 C 29.556163,28.351562 29.305944,27.772525 28.979695,27.25492 l 1.43235,-1.435455 c 0.225207,-0.225695 0.328122,-0.471709 0.220362,-0.579703 l -1.349715,-1.352639 c -0.10776,-0.107995 -0.353241,-0.0048 -0.578449,0.220839 l -1.432351,1.435454 C 26.755405,25.216458 26.17762,24.965697 25.564089,24.825688 v -2.015156 c 0,-0.319182 -0.09551,-0.579703 -0.247907,-0.579703 z m 0.964083,5.493374 c 1.347393,0 2.451523,1.106523 2.451523,2.456836 0,1.350311 -1.10413,2.456835 -2.451523,2.456835 -1.347392,0 -2.451524,-1.106524 -2.451524,-2.456835 0,-1.350313 1.104132,-2.456836 2.451524,-2.456836 z"
       inkscape:connector-curvature="0" />
    <rect
       style="opacity:0.4;fill:none;stroke:url(#linearGradient2982);stroke-width:0.88240188;stroke-linecap:round;stroke-linejoin:round;stroke-miterlimit:4;stroke-dasharray:none;stroke-dashoffset:0;stroke-opacity:1"
       id="rect6741"
       y="-15.643069"
       x="17.661674"
       ry="1.2047086"
       rx="1.2045898"
       height="32.650497"
       width="32.647255"
       transform="matrix(0.72229339,0.69158677,-0.69002334,0.72378712,0,0)" />
    <path
       style="display:inline;overflow:visible;visibility:visible;fill:none;stroke:url(#linearGradient2979);stroke-width:0.88089609;stroke-linecap:butt;stroke-linejoin:miter;stroke-miterlimit:4;stroke-dasharray:none;stroke-dashoffset:0;stroke-opacity:1;marker:none"
       id="path2777"
       d="m 28.418985,15.576211 -4.342338,5.04477 -4.439767,-5.015327 h 2.236151 v -5.30014 h 4.407233 v 5.30014 l 2.138721,-0.02945 z"
       inkscape:connector-curvature="0" />
    <path
       style="display:inline;overflow:visible;visibility:visible;fill:none;stroke:url(#linearGradient2975);stroke-width:0.88240111;stroke-opacity:1;marker:none;enable-background:accumulate"
       id="path4243"
       d="m 23.580834,22.644903 c -0.01028,0.04753 -0.02755,0.08852 -0.02755,0.165629 v 2.015156 a 0.42472916,0.42564951 0 0 1 -0.330542,0.414074 c -0.562775,0.128427 -1.091604,0.359625 -1.570077,0.662518 a 0.42472916,0.42564951 0 0 1 -0.523359,-0.05522 l -1.432351,-1.43545 c -0.04703,-0.04713 -0.07365,-0.05859 -0.110182,-0.08282 l -1.074261,1.07659 c 0.02416,0.03661 0.03562,0.06331 0.08263,0.11042 l 1.432351,1.435455 a 0.42472916,0.42564951 0 0 1 0.05508,0.524494 c -0.302238,0.479507 -0.532936,1.009483 -0.661087,1.573478 a 0.42472916,0.42564951 0 0 1 -0.413177,0.331259 h -2.0108 c -0.07695,0 -0.117844,0.0173 -0.165271,0.0276 v 1.545874 c 0.04742,0.01029 0.08832,0.02759 0.165271,0.02759 h 2.0108 a 0.42472916,0.42564951 0 0 1 0.413177,0.331258 c 0.128151,0.563995 0.358849,1.09397 0.661087,1.57348 a 0.42472916,0.42564951 0 0 1 -0.05508,0.524493 l -1.432351,1.435454 c -0.04703,0.04713 -0.05846,0.0738 -0.08263,0.11042 l 1.074261,1.076591 c 0.03653,-0.02423 0.06316,-0.03568 0.110182,-0.08282 l 1.432351,-1.435455 a 0.42472916,0.42564951 0 0 1 0.523359,-0.05522 c 0.478473,0.302894 1.0073,0.534091 1.570077,0.662518 a 0.42472916,0.42564951 0 0 1 0.330542,0.414074 V 37.5515 c 0,0.07711 0.01726,0.1181 0.02755,0.16563 h 1.542532 c 0.01028,-0.04752 0.02755,-0.08852 0.02755,-0.16563 v -2.015153 a 0.42472916,0.42564951 0 0 1 0.330544,-0.414074 c 0.562774,-0.128418 1.091601,-0.359614 1.570073,-0.662507 a 0.42472916,0.42564951 0 0 1 0.523359,0.05521 l 1.432352,1.435455 c 0.04702,0.04713 0.07365,0.05859 0.11018,0.08282 l 1.074264,-1.076593 c -0.02416,-0.03661 -0.03562,-0.06329 -0.08263,-0.110419 l -1.432352,-1.435454 a 0.42472916,0.42564951 0 0 1 -0.05508,-0.524493 c 0.302238,-0.479512 0.532936,-1.009486 0.661085,-1.573481 a 0.42472916,0.42564951 0 0 1 0.413179,-0.331258 h 2.0108 c 0.07694,0 0.117844,-0.0173 0.165271,-0.0276 V 29.40808 c -0.04741,-0.01029 -0.08832,-0.0276 -0.165271,-0.0276 h -2.01081 a 0.42472916,0.42564951 0 0 1 -0.413188,-0.331242 c -0.12815,-0.563994 -0.358848,-1.093971 -0.661085,-1.573478 a 0.42472916,0.42564951 0 0 1 0.05508,-0.524495 l 1.43235,-1.435454 c 0.04703,-0.04713 0.05846,-0.0738 0.08263,-0.11042 l -1.074263,-1.07659 c -0.03653,0.02424 -0.06316,0.03569 -0.110181,0.08282 l -1.432351,1.435455 a 0.42472916,0.42564951 0 0 1 -0.523358,0.05522 c -0.478467,-0.302895 -1.007295,-0.534093 -1.570071,-0.66252 a 0.42472916,0.42564951 0 0 1 -0.330542,-0.414074 v -2.015156 c 0,-0.07711 -0.01726,-0.1181 -0.02755,-0.165629 z m 0.771266,4.665226 c 1.579401,0 2.864702,1.288087 2.864702,2.87091 0,1.582822 -1.285301,2.870909 -2.864702,2.870909 -1.5794,0 -2.864702,-1.288087 -2.864702,-2.870909 0,-1.582823 1.285302,-2.87091 2.864702,-2.87091 z"
       inkscape:connector-curvature="0" />
  </g>
</svg>
